<svg width="48" height="48" viewBox="0 0 48 48" fill="none" xmlns="http://www.w3.org/2000/svg">
<g id="stat_minus_3">
<mask id="mask0_151_5288" style="mask-type:alpha" maskUnits="userSpaceOnUse" x="0" y="0" width="48" height="48">
<rect id="Bounding box" width="48" height="48" fill="#4A3AFF"/>
</mask>
<g mask="url(#mask0_151_5288)">
<path id="stat_minus_3_2" d="M24.176 38.2L31.976 30.45C32.3427 30.0833 32.801 29.8916 33.351 29.875C33.901 29.8583 34.376 30.05 34.776 30.45C35.1427 30.8166 35.326 31.2833 35.326 31.85C35.326 32.4166 35.1427 32.8833 34.776 33.25L27.026 41C26.2593 41.7666 25.3093 42.15 24.176 42.15C23.0427 42.15 22.0927 41.7666 21.326 41L13.576 33.25C13.2093 32.8833 13.0177 32.425 13.001 31.875C12.9843 31.325 13.176 30.85 13.576 30.45C13.9427 30.0833 14.4093 29.9 14.976 29.9C15.5427 29.9 16.0093 30.0833 16.376 30.45L24.176 38.2ZM24.176 26.3L31.976 18.55C32.3427 18.1833 32.801 17.9916 33.351 17.975C33.901 17.9583 34.376 18.15 34.776 18.55C35.1427 18.9166 35.326 19.3833 35.326 19.95C35.326 20.5166 35.1427 20.9833 34.776 21.35L27.026 29.1C26.2593 29.8666 25.3093 30.25 24.176 30.25C23.0427 30.25 22.0927 29.8666 21.326 29.1L13.576 21.35C13.2093 20.9833 13.0177 20.525 13.001 19.975C12.9843 19.425 13.176 18.95 13.576 18.55C13.9427 18.1833 14.4093 18 14.976 18C15.5427 18 16.0093 18.1833 16.376 18.55L24.176 26.3ZM24.176 14.4L31.976 6.64997C32.3427 6.28331 32.801 6.09164 33.351 6.07497C33.901 6.05831 34.376 6.24997 34.776 6.64997C35.1427 7.01664 35.326 7.48331 35.326 8.04997C35.326 8.61664 35.1427 9.08331 34.776 9.44997L27.026 17.2C26.2593 17.9666 25.3093 18.35 24.176 18.35C23.0427 18.35 22.0927 17.9666 21.326 17.2L13.576 9.44997C13.2093 9.08331 13.0177 8.62497 13.001 8.07497C12.9843 7.52497 13.176 7.04997 13.576 6.64997C13.9427 6.28331 14.4093 6.09997 14.976 6.09997C15.5427 6.09997 16.0093 6.28331 16.376 6.64997L24.176 14.4Z" fill="#4A3AFF"/>
</g>
</g>
</svg>
