<svg width="24" height="24" viewBox="0 0 24 24" fill="none" xmlns="http://www.w3.org/2000/svg">
<g id="check-circle">
<path id="Vector" d="M16.4999 8.99992C16.8904 9.39044 16.8904 10.0236 16.4999 10.4141L11.707 15.207C11.3165 15.5975 10.6833 15.5975 10.2928 15.207L7.99992 12.9141C7.6094 12.5236 7.6094 11.8904 7.99992 11.4999C8.39045 11.1094 9.02361 11.1094 9.41414 11.4999L10.9999 13.0857L15.0857 8.99992C15.1345 8.9511 15.1871 8.90839 15.2426 8.87178C15.6307 8.6155 16.1582 8.65821 16.4999 8.99992Z" fill="#161619"/>
<path id="Vector_2" fill-rule="evenodd" clip-rule="evenodd" d="M22 12C22 17.5228 17.5228 22 12 22C6.47715 22 2 17.5228 2 12C2 6.47715 6.47715 2 12 2C17.5228 2 22 6.47715 22 12ZM20 12C20 16.4183 16.4183 20 12 20C7.58172 20 4 16.4183 4 12C4 7.58172 7.58172 4 12 4C16.4183 4 20 7.58172 20 12Z" fill="#161619"/>
</g>
</svg>
