<svg width="27" height="27" viewBox="0 0 27 27" fill="none" xmlns="http://www.w3.org/2000/svg">
<g id="vuesax/bulk/blend">
<g id="blend">
<path id="Vector" d="M24.4114 13.3334C24.4114 17.0111 21.4225 20 17.7447 20C16.0336 20 14.4781 19.3556 13.3003 18.2889C14.667 17.0778 15.5225 15.3 15.5225 13.3334C15.5225 11.3667 14.667 9.58891 13.3003 8.3778C14.4781 7.31113 16.0336 6.66669 17.7447 6.66669C21.4225 6.66669 24.4114 9.65558 24.4114 13.3334Z" fill="#4A3AFF"/>
<path id="Vector_2" opacity="0.4" d="M15.5223 13.3334C15.5223 15.3 14.6667 17.0778 13.3001 18.2889C12.1223 19.3556 10.5667 20 8.85563 20C5.17785 20 2.18896 17.0111 2.18896 13.3334C2.18896 9.65558 5.17785 6.66669 8.85563 6.66669C10.5667 6.66669 12.1223 7.31113 13.3001 8.3778C14.6667 9.58891 15.5223 11.3667 15.5223 13.3334Z" fill="#4A3AFF"/>
</g>
</g>
</svg>
