<svg width="24" height="24" viewBox="0 0 24 24" fill="none" xmlns="http://www.w3.org/2000/svg">
<g id="vuesax/bulk/color-swatch">
<g id="color-swatch">
<path id="Vector" opacity="0.4" d="M21.3891 16.0416V18.9583C21.3891 20.4166 20.4168 21.3889 18.9585 21.3889H5.8335C6.23211 21.3889 6.64044 21.3305 7.01961 21.2041C7.12655 21.1652 7.23348 21.1264 7.34043 21.0778C7.68071 20.9416 8.01128 20.7472 8.30295 20.4944C8.39045 20.4264 8.48767 20.3389 8.57517 20.2514L8.61404 20.2125L15.2252 13.6111H18.9585C20.4168 13.6111 21.3891 14.5833 21.3891 16.0416Z" fill="#4A3AFF"/>
<path id="Vector_2" opacity="0.6" d="M17.8596 10.9764L15.2249 13.6112L8.61377 20.2126C9.29433 19.5126 9.72212 18.5501 9.72212 17.5001V8.10838L12.3568 5.47366C13.3874 4.44311 14.768 4.44311 15.7985 5.47366L17.8596 7.53478C18.8902 8.56533 18.8902 9.94589 17.8596 10.9764Z" fill="#4A3AFF"/>
<path id="Vector_3" d="M7.29156 1.94446H4.37489C2.91656 1.94446 1.94434 2.91668 1.94434 4.37501V17.5C1.94434 17.7625 1.97349 18.025 2.0221 18.2778C2.05127 18.4042 2.08044 18.5306 2.11933 18.657C2.16794 18.8028 2.21655 18.9486 2.27489 19.0847C2.28461 19.0945 2.28462 19.1042 2.28462 19.1042C2.29434 19.1042 2.29434 19.1042 2.28462 19.1139C2.42073 19.3861 2.57628 19.6486 2.761 19.8917C2.86794 20.0181 2.9749 20.1347 3.08185 20.2514C3.18879 20.3681 3.30545 20.4653 3.43183 20.5625L3.44157 20.5722C3.68462 20.757 3.94711 20.9125 4.21933 21.0486C4.22905 21.0389 4.22906 21.0389 4.22906 21.0486C4.3749 21.1167 4.52072 21.1653 4.67628 21.2139C4.80267 21.2528 4.92907 21.282 5.05546 21.3111C5.30824 21.3597 5.57072 21.3889 5.83323 21.3889C6.23184 21.3889 6.64017 21.3306 7.01934 21.2042C7.12628 21.1653 7.23321 21.1264 7.34016 21.0778C7.68044 20.9417 8.01101 20.7472 8.30268 20.4945C8.39018 20.4264 8.4874 20.3389 8.5749 20.2514L8.61377 20.2125C9.29432 19.5125 9.72211 18.55 9.72211 17.5V4.37501C9.72211 2.91668 8.74989 1.94446 7.29156 1.94446ZM5.83323 18.9583C5.02628 18.9583 4.37489 18.307 4.37489 17.5C4.37489 16.6931 5.02628 16.0417 5.83323 16.0417C6.64017 16.0417 7.29156 16.6931 7.29156 17.5C7.29156 18.307 6.64017 18.9583 5.83323 18.9583Z" fill="#4A3AFF"/>
</g>
</g>
</svg>
