<svg width="24" height="24" viewBox="0 0 24 24" fill="none" xmlns="http://www.w3.org/2000/svg">
<g id="vuesax/bulk/shapes">
<g id="shapes">
<path id="Vector" d="M13.0567 14.5834H4.27751C2.50806 14.5834 1.38028 12.6875 2.23584 11.132L4.50112 7.00975L6.62056 3.15002C7.50529 1.54586 9.81917 1.54586 10.7039 3.15002L12.8331 7.00975L13.8539 8.8667L15.0983 11.132C15.9539 12.6875 14.8261 14.5834 13.0567 14.5834Z" fill="#4A3AFF"/>
<path id="Vector_2" opacity="0.4" d="M21.3889 15.0694C21.3889 18.5597 18.5597 21.3889 15.0694 21.3889C11.5792 21.3889 8.75 18.5597 8.75 15.0694C8.75 14.9042 8.75972 14.7486 8.76944 14.5833H13.0569C14.8264 14.5833 15.9542 12.6875 15.0986 11.132L13.8542 8.86666C14.2431 8.78888 14.6514 8.75 15.0694 8.75C18.5597 8.75 21.3889 11.5792 21.3889 15.0694Z" fill="#4A3AFF"/>
</g>
</g>
</svg>
