<svg width="29" height="56" viewBox="0 0 29 56" fill="none" xmlns="http://www.w3.org/2000/svg">
<path fill-rule="evenodd" clip-rule="evenodd" d="M28.9575 52.996C29.0531 52.8671 28.9575 52.7141 28.9575 52.4483C28.7703 52.4202 26.8664 52.392 26.6752 52.3678C26.7494 50.8282 26.2522 49.316 25.2811 48.1276C24.187 46.8979 22.6598 46.1505 21.0271 46.0458C20.8867 47.6933 21.3868 49.3312 22.4212 50.6121C22.8659 51.1407 23.4067 51.5781 24.0144 51.9007C22.8135 51.5297 21.6418 51.0681 20.5093 50.5195C21.023 49.0116 20.9533 47.363 20.3141 45.9049C19.5628 44.4373 18.2777 43.3215 16.7292 42.7922C16.1694 44.3466 16.2338 46.0609 16.9085 47.5679C17.1848 48.1436 17.5521 48.67 17.9959 49.1263C16.8911 48.4199 15.8382 47.634 14.8452 46.7747C15.338 46.121 15.6914 45.3712 15.8832 44.5726C16.075 43.7739 16.101 42.9438 15.9595 42.1345C15.818 41.3252 15.5122 40.5543 15.0612 39.8705C14.6103 39.1867 14.0241 38.6048 13.3396 38.1615C12.3866 39.5042 11.9919 41.1709 12.2402 42.8043C12.41 43.7756 12.8212 44.6874 13.4352 45.4539C12.3632 44.3535 11.3926 43.1566 10.5354 41.8781C10.6908 41.7171 10.6748 41.7291 10.9736 41.407C11.9791 40.395 12.6056 39.0613 12.7461 37.6339C12.8239 35.9821 12.2625 34.3645 11.1807 33.124C9.93587 34.1916 9.14561 35.7029 8.97404 37.344C8.90769 38.3746 9.10957 39.4047 9.55956 40.3319C9.33253 39.9292 9.10947 39.5265 8.89836 39.1238C8.77704 38.8071 8.6319 38.5001 8.4642 38.2057C8.09307 37.4216 7.77113 36.6147 7.50028 35.7897C7.60384 35.7535 7.71537 35.7132 7.81096 35.6689C8.50834 35.3572 9.13463 34.9035 9.6507 34.336C10.1668 33.7686 10.5615 33.0996 10.8103 32.371C11.3482 30.8124 11.2683 29.1037 10.5872 27.6033C9.09047 28.2612 7.90508 29.4813 7.2812 31.0059C6.88408 32.1066 6.81484 33.3007 7.08204 34.4407C6.60719 32.7675 6.31075 31.0477 6.19778 29.3107C7.78602 29.1235 9.24288 28.328 10.2686 27.0879C11.2683 25.8316 11.6348 24.2249 11.4914 22.4733C9.86312 22.6439 8.36384 23.4465 7.30908 24.7121C6.65237 25.5539 6.2388 26.5629 6.11414 27.6275C6.11414 26.6128 6.51245 23.0209 6.51245 23.0813C8.1389 23.2697 9.77413 22.812 11.0732 21.8048C12.313 20.729 13.0877 19.2059 13.232 17.5606C11.6097 17.4001 9.98648 17.8567 8.67929 18.8411C7.68463 19.5676 7.00212 20.6509 6.77136 21.8692C7.05814 20.4717 7.47834 19.1056 8.02605 17.7902C9.64182 17.9763 11.2656 17.5168 12.5509 16.5097C13.8022 15.4413 14.5877 13.9183 14.7377 12.2695C13.1478 12.0843 11.5477 12.5161 10.2606 13.4775C10.7671 12.6917 11.3163 11.9348 11.9056 11.2105C12.3397 11.4394 12.798 11.6177 13.2719 11.742C14.4189 12.0253 15.6238 11.9523 16.7292 11.5326C18.2417 10.9069 19.4543 9.71132 20.1109 8.19845C18.6297 7.50131 16.9382 7.41465 15.3949 7.95685C15.1424 8.05214 14.8974 8.16656 14.662 8.29912C15.3669 7.67143 16.1049 7.08267 16.8726 6.53541C18.4626 6.83979 20.1073 6.50926 21.4612 5.61328C22.7815 4.63829 23.6755 3.18296 23.9547 1.55432C22.3466 1.23819 20.6799 1.56593 19.3063 2.46839C18.0915 3.36575 17.2419 4.67994 16.9164 6.16495C16.6018 6.37836 16.307 6.59581 16.0123 6.81728C16.5035 6.19925 16.8592 5.48278 17.0559 4.71532C17.4252 3.10355 17.1519 1.40959 16.2951 0C14.882 0.82633 13.8433 2.17693 13.3993 3.76501C13.0366 5.35482 13.2979 7.02491 14.1282 8.42395C13.5509 8.95797 13.0005 9.52108 12.4792 10.1112C12.8053 9.45477 12.9964 8.73833 13.0408 8.00517C13.1245 6.3556 12.5637 4.73884 11.4794 3.50327C10.2292 4.5706 9.44039 6.089 9.28074 7.73537C9.20357 9.36322 9.7532 10.958 10.8143 12.1849C10.3363 12.8373 9.90212 13.5097 9.49583 14.1983C9.73019 13.3414 9.76293 12.4409 9.59143 11.5688C9.22354 9.95136 8.24238 8.54448 6.85899 7.65081C5.94569 9.02046 5.59701 10.6963 5.8871 12.3218C6.22811 13.8586 7.12807 15.2097 8.40843 16.107C8.11368 16.9123 7.75918 17.7177 7.45248 18.523C7.61516 17.4604 7.47706 16.3729 7.05416 15.3862C6.36346 13.8854 5.11771 12.7185 3.58484 12.1366C2.97309 13.6684 2.97309 15.3805 3.58484 16.9123C4.25679 18.3704 5.45545 19.513 6.93467 20.1055C6.70553 20.8922 6.51805 21.6906 6.37304 22.4974C6.28673 21.8707 6.09546 21.2633 5.80744 20.7015C5.0035 19.2561 3.67281 18.1854 2.09912 17.7177C1.60734 19.2871 1.72849 20.9873 2.43769 22.4692C3.20091 23.8716 4.46671 24.925 5.97473 25.4128C5.91498 26.0933 5.87117 26.7819 5.87117 27.4745C5.61826 26.6881 5.19507 25.9686 4.63241 25.3685C3.48888 24.1865 1.93373 23.503 0.298736 23.4638C0.228711 25.1159 0.800517 26.7301 1.892 27.9617C2.97545 29.0771 4.43094 29.7446 5.97473 29.8341C6.06082 30.8328 6.20714 31.8252 6.41287 32.8059C6.00325 31.9442 5.38879 31.1985 4.62444 30.6355C3.27077 29.7055 1.6123 29.3445 0 29.6288C0.245269 31.2623 1.10948 32.7352 2.40981 33.7361C3.71998 34.6384 5.32022 35.0039 6.88687 34.7589C6.89853 34.7876 6.90785 34.8172 6.91475 34.8474C7.13193 35.6103 7.38718 36.3616 7.67952 37.0984C7.28226 36.6598 6.82001 36.2862 6.30931 35.991C4.86075 35.212 3.16852 35.0358 1.59326 35.4998C2.01224 37.0986 3.03285 38.4686 4.43723 39.3171C5.81922 40.0644 7.4284 40.2599 8.94616 39.8648C9.29966 40.5472 9.68924 41.2099 10.1132 41.85C9.59241 41.4195 9.00044 41.0855 8.36462 40.8634C6.79916 40.3737 5.10672 40.518 3.64458 41.2661C4.35826 42.7537 5.61037 43.9071 7.14179 44.4875C8.66994 44.967 10.3217 44.8374 11.7583 44.1251C12.2123 44.6687 12.6744 45.1922 13.1643 45.6955C12.62 45.4199 12.0347 45.2363 11.4316 45.1519C9.80661 44.9736 8.17671 45.4415 6.88687 46.4565C7.86101 47.785 9.31067 48.6753 10.9258 48.937C12.4992 49.1184 14.0818 48.6863 15.3511 47.729C16.0829 48.3242 16.8447 48.8806 17.6334 49.3961C16.9277 49.1691 16.1847 49.0843 15.4467 49.1464C13.8251 49.3317 12.3396 50.1512 11.3082 51.4296C12.5461 52.5095 14.1534 53.0559 15.7852 52.9517C17.3984 52.7733 18.8797 51.9675 19.9158 50.7048C20.6805 51.1074 21.4533 51.4497 22.2539 51.7638C21.5177 51.7273 20.7816 51.8368 20.087 52.0859C18.5654 52.6886 17.3335 53.8632 16.6496 55.3637C18.1212 56.0851 19.8131 56.1978 21.3656 55.6778C22.7386 55.1463 23.8777 54.1348 24.576 52.8269C25.4045 52.8188 28.125 52.8591 28.9575 52.996Z" fill="#333333"/>
</svg>
