<svg width="1147" height="360" viewBox="0 0 1147 360" fill="none" xmlns="http://www.w3.org/2000/svg">
<path d="M-222.9 -23.8649C-197.883 67.7348 -172.01 161.54 -116.994 240.384C-92.1628 275.967 -61.6045 308.241 -25.2683 332.232C13.0576 357.537 59.4058 375.749 105.925 366.71C143.916 359.317 177.52 336.658 201.863 306.907C230.134 272.288 244.484 228.579 247.8 184.33C251.276 137.893 244.315 90.8889 231.268 46.325C219.885 7.49248 203.066 -29.9042 180.769 -63.6742C159.11 -96.4951 131.747 -126.253 98.9433 -148.199C82.9148 -159.09 65.6214 -167.991 47.4438 -174.706C29.0534 -181.373 9.31237 -186.742 -10.45 -185.085C-31.6356 -183.312 -49.0919 -171.714 -58.1062 -152.315C-67.7174 -131.627 -69.6485 -106.932 -69.1705 -84.4304C-68.1807 -37.2489 -52.5217 9.00767 -34.0543 51.9663C0.0652422 131.047 49.4647 202.612 111.309 262.555C143.14 293.535 178.213 321 215.92 344.475C256.51 369.636 302.05 389.452 350.051 393.737C392.706 397.542 437.015 389.594 473.293 366.022C507.986 343.451 531.674 307.633 545.738 269.26C560.64 228.592 566.12 185.31 567.267 142.2C568.474 96.7552 564.225 51.3299 554.61 6.89765C545.009 -37.8524 530.092 -81.294 510.176 -122.502C490.099 -163.862 465.417 -203.592 433.548 -236.942C410.333 -261.236 364.785 -304.028 332.805 -268.457C312.667 -246.061 317.819 -209.175 323.634 -182.392C339.93 -106.997 376.885 -36.4125 421.754 25.657C449.385 63.9135 479.297 100.47 511.327 135.127C542.793 169.146 576.695 201.06 614.502 227.993C685.648 278.64 771.37 310.63 859.637 304.411C941.715 298.626 1026.84 255.536 1052.02 172.109C1062.79 136.427 1059.43 99.3436 1048.12 64.2674C1037.77 32.1408 1020.31 -1.64326 992.289 -21.7815C968.462 -38.9137 933.91 -44.4251 907.604 -29.2803C886.866 -17.3461 879.74 6.66836 878.99 29.2181C878.043 57.4769 884.642 85.7345 892.54 112.71C899.433 136.244 908.053 159.193 916.906 182.039C947.573 261.165 988.293 335.88 1042.48 401.424C1069.68 434.404 1099.86 464.805 1132.65 492.239C1140.81 499.05 1151.33 486.343 1143.18 479.542C1079.51 426.325 1026.51 361.511 985.347 289.563C954.667 235.925 930.34 177.76 911.62 118.839C903.758 94.0837 897.069 68.5024 895.558 42.4794C894.44 23.909 895.823 0.310132 911.694 -12.2173C931.604 -27.9485 963.341 -22.6002 982.444 -8.59518C1008.42 10.4459 1023.85 41.8884 1033.28 71.9072C1043.52 104.518 1046.1 139.594 1034.75 172.346C1022.13 208.709 995.705 238.335 962.614 257.577C892.808 298.17 803.971 295.779 729.546 270.089C648.095 242.005 579.826 185.563 522.247 122.828C492.605 90.4757 464.758 56.5241 438.831 21.1258C412.295 -15.0646 388.176 -53.2468 370.465 -94.6098C359.302 -120.686 349.217 -147.42 342.192 -174.871C338.389 -189.772 335.585 -205.21 335.236 -220.587C334.989 -231.968 336.21 -244.796 342.756 -254.448C353.131 -269.779 370.336 -266.617 383.998 -257.679C402.107 -245.86 418.157 -230.319 432.236 -214.025C460.295 -181.445 482.548 -143.754 500.374 -104.712C535.992 -26.7258 553.606 59.5839 550.774 145.315C548.299 221.176 530.427 311.297 460.807 354.462C383.888 402.115 288.136 371.397 218.036 326.521C149.321 282.518 89.8011 224.051 43.1939 157.215C19.9507 123.912 -0.00982652 88.4354 -16.4077 51.2814C-33.9899 11.3687 -49.0874 -30.9927 -52.2457 -74.8043C-53.8163 -96.5081 -52.9483 -120.585 -44.9364 -141.102C-37.4144 -160.371 -21.9108 -169.248 -1.60664 -168.868C16.7237 -168.529 35.2041 -162.307 51.9374 -155.17C68.7196 -147.993 84.5768 -138.822 99.1667 -127.854C159.275 -82.7952 197.827 -13.1255 217.576 58.3089C239.716 138.411 242.801 235.848 184.484 301.861C160.646 328.854 127.636 348.92 91.3082 352.158C46.9883 356.118 3.95138 334.549 -30.4582 308.402C-98.8215 256.383 -140.541 178.352 -168.857 98.9117C-183.904 56.7007 -195.716 13.4184 -207.486 -29.7651C-210.268 -40.0102 -225.669 -34.0409 -222.9 -23.8649Z" fill="url(#paint0_linear_188_10272)"/>
<defs>
<linearGradient id="paint0_linear_188_10272" x1="3.99999" y1="169" x2="666" y2="169" gradientUnits="userSpaceOnUse">
<stop stop-color="#9C98EA"/>
<stop offset="1" stop-color="#D7D6E9" stop-opacity="0"/>
</linearGradient>
</defs>
</svg>
