<svg width="1333" height="498" viewBox="0 0 1333 498" fill="none" xmlns="http://www.w3.org/2000/svg">
<path opacity="0.1" d="M-36.8666 136.135C-11.85 227.735 14.0232 321.54 69.0392 400.384C93.8704 435.967 124.429 468.241 160.765 492.232C199.091 517.537 245.439 535.749 291.958 526.71C329.949 519.317 363.553 496.658 387.896 466.907C416.167 432.287 430.518 388.579 433.833 344.33C437.309 297.893 430.348 250.889 417.301 206.325C405.918 167.492 389.099 130.096 366.802 96.3257C345.143 63.5048 317.78 33.747 284.977 11.8007C268.948 0.909945 251.655 -7.99112 233.477 -14.7065C215.087 -21.3733 195.346 -26.7416 175.583 -25.085C154.398 -23.3119 136.941 -11.7144 127.927 7.68472C118.316 28.3728 116.385 53.068 116.863 75.5695C117.853 122.751 133.511 169.008 151.979 211.966C186.098 291.047 235.498 362.612 297.343 422.554C329.174 453.535 364.246 481 401.954 504.475C442.543 529.635 488.084 549.452 536.084 553.737C578.739 557.542 623.048 549.594 659.326 526.022C694.019 503.451 717.707 467.633 731.772 429.259C746.673 388.592 752.153 345.31 753.3 302.2C754.507 256.755 750.258 211.33 740.644 166.898C731.042 122.147 716.125 78.7059 696.209 37.4977C676.133 -3.86252 651.45 -43.5918 619.582 -76.9421C596.366 -101.236 550.819 -144.028 518.839 -108.457C498.7 -86.0613 503.852 -49.1752 509.667 -22.3926C525.963 53.0024 562.918 123.587 607.787 185.657C635.418 223.913 665.33 260.47 697.36 295.127C728.826 329.146 762.728 361.06 800.535 387.993C871.681 438.64 957.403 470.63 1045.67 464.411C1127.75 458.626 1212.88 415.536 1238.05 332.109C1248.82 296.427 1245.47 259.343 1234.16 224.267C1223.81 192.141 1206.34 158.357 1178.32 138.218C1154.49 121.086 1119.94 115.575 1093.64 130.72C1072.9 142.654 1065.77 166.668 1065.02 189.218C1064.08 217.477 1070.68 245.734 1078.57 272.71C1085.47 296.244 1094.09 319.193 1102.94 342.039C1133.61 421.165 1174.33 495.88 1228.51 561.424C1255.71 594.404 1285.9 624.805 1318.68 652.239C1326.85 659.05 1337.36 646.343 1329.22 639.542C1265.55 586.325 1212.55 521.511 1171.38 449.563C1140.7 395.925 1116.37 337.759 1097.65 278.839C1089.79 254.084 1083.1 228.502 1081.59 202.479C1080.47 183.909 1081.86 160.31 1097.73 147.783C1117.64 132.051 1149.37 137.4 1168.48 151.405C1194.46 170.446 1209.88 201.888 1219.31 231.907C1229.55 264.518 1232.14 299.593 1220.78 332.346C1208.16 368.709 1181.74 398.335 1148.65 417.577C1078.84 458.17 990.004 455.779 915.58 430.089C834.128 402.004 765.859 345.563 708.28 282.828C678.638 250.476 650.792 216.524 624.864 181.126C598.328 144.935 574.209 106.753 556.498 65.3901C545.336 39.3138 535.251 12.5795 528.225 -14.8707C524.422 -29.7719 521.618 -45.2105 521.269 -60.5869C521.023 -71.9685 522.243 -84.7965 528.79 -94.4482C539.164 -109.779 556.369 -106.617 570.031 -97.6791C588.14 -85.8603 604.191 -70.3194 618.269 -54.0252C646.329 -21.4449 668.581 16.2457 686.407 55.2877C722.025 133.274 739.64 219.584 736.807 305.315C734.332 381.176 716.46 471.297 646.841 514.462C569.921 562.114 474.17 531.397 404.069 486.521C335.354 442.518 275.834 384.05 229.227 317.215C205.984 283.912 186.023 248.435 169.625 211.281C152.043 171.369 136.946 129.007 133.788 85.1956C132.217 63.4918 133.085 39.4153 141.097 18.8982C148.619 -0.37087 164.122 -9.2482 184.427 -8.86826C202.757 -8.52954 221.237 -2.30757 237.971 4.82987C254.753 12.007 270.61 21.1783 285.2 32.1459C345.308 77.2046 383.86 146.874 403.609 218.309C425.749 298.411 428.835 395.848 370.517 461.861C346.679 488.854 313.67 508.919 277.341 512.158C233.021 516.118 189.985 494.549 155.575 468.402C87.2117 416.383 45.4921 338.352 17.1758 258.912C2.12873 216.701 -9.68301 173.418 -21.4525 130.235C-24.235 119.99 -39.6353 125.959 -36.8666 136.135Z" fill="url(#paint0_linear_320_7580)"/>
<defs>
<linearGradient id="paint0_linear_320_7580" x1="6" y1="329" x2="867" y2="329" gradientUnits="userSpaceOnUse">
<stop stop-color="#9C98EA"/>
<stop offset="1" stop-color="#D7D6E9" stop-opacity="0"/>
</linearGradient>
</defs>
</svg>
